# xmcd CD database file
#
# Track frame offsets:
#	150
#	25941
#	45684
#	65241
#	93628
#	107413
#	131032
#	168376
#	189328
#	215971
#	238307
#	250946
#	275088
#
# Disc length: 3865 seconds
#
# Revision: 0
# Processed by: cddbd v1.5.2PL0 Copyright (c) Steve Scherf et al.
# Submitted via: CDex 1.51
#
DISCID=cb0f170d
DTITLE=EDDIE VAAN SHAW Jr. - Chicago Blues Session Volume 32-The Trail Of Tears
DYEAR=1994
DGENRE=Blues
TTITLE0=Please Tell Me
TTITLE1=Geche Woman
TTITLE2=My Woman's Ugly
TTITLE3=Heart Of Yours
TTITLE4=Tears Are Falling
TTITLE5=I'm Ready
TTITLE6=Sky Is Crying
TTITLE7=Oh, How They Can Love
TTITLE8=I'm Crazy Now
TTITLE9=Luck Overdue
TTITLE10=Blues Men Of Yesterday
TTITLE11=Stone Cold Blue
TTITLE12=Bare Ass Slide
EXTD=YEAR: 1994
EXTT0=
EXTT1=
EXTT2=
EXTT3=
EXTT4=
EXTT5=
EXTT6=
EXTT7=
EXTT8=
EXTT9=
EXTT10=
EXTT11=
EXTT12=
PLAYORDER=
